<?xml version="1.0" encoding="utf-8"?>
<!-- Generator: Adobe Illustrator 22.1.0, SVG Export Plug-In . SVG Version: 6.00 Build 0)  -->
<svg version="1.1" id="Layer_1" xmlns="http://www.w3.org/2000/svg" xmlns:xlink="http://www.w3.org/1999/xlink" x="0px" y="0px"
	 viewBox="0 0 500 500" style="enable-background:new 0 0 500 500;" xml:space="preserve">
<style type="text/css">
	.st0{fill:#0F2021;}
	.st1{fill:#DC6789;}
	.st2{fill-rule:evenodd;clip-rule:evenodd;fill:#292354;}
	.st3{fill-rule:evenodd;clip-rule:evenodd;fill:#332B67;}
	.st4{fill-rule:evenodd;clip-rule:evenodd;fill:#FFE8AE;}
	.st5{fill-rule:evenodd;clip-rule:evenodd;fill:#FFFFFF;}
	.st6{fill-rule:evenodd;clip-rule:evenodd;fill:#E7584D;}
	.st7{fill-rule:evenodd;clip-rule:evenodd;fill:#FCB245;}
	.st8{fill:#4D4D4D;}
	.st9{fill-rule:evenodd;clip-rule:evenodd;fill:#005A83;}
	.st10{fill-rule:evenodd;clip-rule:evenodd;fill:#CCCCCC;}
	.st11{fill-rule:evenodd;clip-rule:evenodd;fill:#29ABE2;}
	.st12{fill-rule:evenodd;clip-rule:evenodd;fill:#C02729;}
	.st13{fill:#0BA589;}
	.st14{fill-rule:evenodd;clip-rule:evenodd;fill:#07B292;}
	.st15{fill-rule:evenodd;clip-rule:evenodd;fill:#059076;}
	.st16{fill-rule:evenodd;clip-rule:evenodd;fill:#F3F3F3;}
	.st17{fill-rule:evenodd;clip-rule:evenodd;fill:#E4E4E4;}
</style>
<rect x="0" y="0.5" class="st0" width="500" height="500"/>
<g>
	<path id="World" class="st1" d="M253.6,210.1h12.9c-4.9-12.6-7.7-26.9-7.8-42.2h-16.9C241.9,183.3,246.2,197.7,253.6,210.1
		L253.6,210.1z M242,160.4h16.8c0.8-13.5,3.7-26.1,8.2-37.3h-12.5C247.6,134.1,243.2,146.8,242,160.4L242,160.4z M259.9,115.7h10.6
		c2.1-4.2,4.5-8.1,7.1-11.8c2.6-3.7,5.5-7,8.5-10c-7.4,3.9-14.2,8.9-20.1,14.8C263.9,110.9,261.8,113.3,259.9,115.7L259.9,115.7z
		 M363.3,94c3,3,5.9,6.3,8.5,10c2.6,3.6,5,7.5,7.1,11.8h10.6c-1.9-2.4-4-4.8-6.2-6.9C377.5,102.9,370.7,97.9,363.3,94L363.3,94z
		 M394.9,123.2h-12.6c4.6,11.2,7.5,23.8,8.2,37.3h16.8C406.2,146.8,401.8,134.1,394.9,123.2L394.9,123.2z M407.6,167.9h-16.9
		c-0.1,15.2-2.9,29.6-7.8,42.2h12.9C403.2,197.7,407.5,183.3,407.6,167.9L407.6,167.9z M402.2,213.9l-2.3,3.6
		c-3.3,5-7.1,9.6-11.3,13.8c-16.4,16.4-39,26.5-63.9,26.5c-25,0-47.6-10.1-63.9-26.5c-16.3-16.4-26.5-39-26.5-63.9
		c0-25,10.1-47.6,26.5-63.9c16.4-16.4,39-26.5,63.9-26.5c25,0,47.6,10.1,63.9,26.5c16.4,16.4,26.5,39,26.5,63.9
		C415.1,184.4,410.4,200.3,402.2,213.9L402.2,213.9z M390.8,217.5h-11.1c-2.3,4.8-5,9.3-7.9,13.3c-2.6,3.7-5.5,7-8.5,10
		c7.4-3.9,14.2-8.9,20.1-14.8C386,223.4,388.5,220.5,390.8,217.5L390.8,217.5z M286.1,240.8c-3-3-5.9-6.3-8.5-10
		c-2.9-4.1-5.6-8.5-7.9-13.3h-11.1c2.3,3,4.8,5.8,7.4,8.5C271.9,231.9,278.7,236.9,286.1,240.8L286.1,240.8z M274.5,210.1h27.1
		c-1.8-12.5-2.8-26.9-2.8-42.2h-32.6C266.2,183.3,269.3,197.7,274.5,210.1L274.5,210.1z M266.4,160.4h32.5c0.3-13.5,1.3-26.1,3-37.3
		h-26.6C270.3,134.1,267.2,146.8,266.4,160.4L266.4,160.4z M279,115.7h24.1c0.7-3.7,1.5-7.3,2.3-10.5c2-7.7,4.4-14.2,7.3-18.9
		c-11.1,3.3-21.1,11.1-29,22.1C282,110.6,280.4,113.1,279,115.7L279,115.7z M336.7,86.3c2.8,4.8,5.3,11.2,7.3,18.9
		c0.8,3.2,1.6,6.8,2.3,10.5h24.1c-1.5-2.6-3-5.1-4.7-7.4C357.9,97.4,347.9,89.6,336.7,86.3L336.7,86.3z M374.2,123.2h-26.6
		c1.7,11.1,2.7,23.8,3,37.3H383C382.2,146.8,379.1,134.1,374.2,123.2L374.2,123.2z M383.2,167.9h-32.6c0,15.3-1,29.6-2.8,42.2h27.1
		C380.1,197.7,383.2,183.3,383.2,167.9L383.2,167.9z M371.3,217.5h-24.7c-0.8,4.3-1.7,8.4-2.6,12.1c-2,7.7-4.4,14.2-7.3,18.9
		c11.1-3.3,21.1-11.1,29-22.1C367.7,223.7,369.6,220.7,371.3,217.5L371.3,217.5z M312.6,248.6c-2.8-4.8-5.3-11.2-7.3-18.9
		c-1-3.7-1.8-7.7-2.6-12.1h-24.7c1.7,3.2,3.6,6.2,5.6,9C291.5,237.4,301.5,245.3,312.6,248.6L312.6,248.6z M309.1,210.1h31.2
		c1.8-12.4,2.9-26.8,2.9-42.2h-36.9C306.3,183.3,307.3,197.7,309.1,210.1L309.1,210.1z M339,217.5h-28.7c0.7,3.6,1.4,7.1,2.2,10.2
		c3.6,13.9,7.9,22.5,12.1,22.5c4.2,0,8.5-8.6,12.1-22.5C337.6,224.6,338.4,221.2,339,217.5L339,217.5z M336.8,107.1
		c-3.6-14-7.9-22.6-12.1-22.6c-4.2,0-8.5,8.6-12.1,22.6c-0.7,2.7-1.3,5.6-1.9,8.6h28.1C338.1,112.6,337.5,109.8,336.8,107.1
		L336.8,107.1z M309.4,123.2c-1.7,11-2.8,23.7-3.1,37.3h36.8c-0.3-13.6-1.4-26.3-3.1-37.3H309.4z"/>
	<g id="Computer">
		<rect x="186.7" y="387.2" class="st2" width="61.1" height="18.8"/>
		<path class="st3" d="M98.2,205.1h238.2c2.3,0,4.2,1.9,4.2,4.2V387c0,2.3-1.9,4.2-4.2,4.2H98.2c-2.4,0-4.2-1.9-4.2-4.2V209.3
			C93.9,207,95.8,205.1,98.2,205.1L98.2,205.1z"/>
		<path class="st4" d="M104.5,215.8h225.6c1.4,0,2.5,1.1,2.5,2.5v141.5c0,1.4-1.1,2.5-2.5,2.5H104.5c-1.4,0-2.5-1.1-2.5-2.5V218.3
			C102,216.9,103.1,215.8,104.5,215.8L104.5,215.8z"/>
		<path class="st3" d="M173.5,402.1H261c2.3,0,4.2,1.9,4.2,4.2v1.6c0,2.3-1.9,4.2-4.2,4.2h-87.4c-2.3,0-4.2-1.9-4.2-4.2v-1.6
			C169.3,404,171.2,402.1,173.5,402.1L173.5,402.1z"/>
		<path class="st5" d="M217.3,379.3c2.1,0,3.9-1.8,3.9-3.9c0-2.1-1.8-3.9-3.9-3.9c-2.1,0-3.9,1.8-3.9,3.9
			C213.3,377.5,215.1,379.3,217.3,379.3L217.3,379.3z"/>
	</g>
	<g id="Graph">
		<rect x="218.5" y="326" class="st6" width="22.4" height="36.3"/>
		<rect x="240.9" y="301.9" class="st7" width="22.4" height="60.3"/>
		<rect x="263.3" y="277.9" class="st6" width="22.4" height="84.4"/>
		<rect x="285.7" y="238.6" class="st7" width="22.4" height="123.6"/>
		<rect x="196" y="344.1" class="st7" width="22.4" height="18.1"/>
		<rect x="173.6" y="354.9" class="st6" width="22.4" height="7.3"/>
	</g>
	<g id="Lock">
		<path class="st8" d="M104.2,154.3L104.2,154.3c6.4,0,12.1,2.6,16.3,6.8c4.2,4.2,6.8,10,6.8,16.3v33.2c0,6.4-2.6,12.1-6.8,16.3
			c-4.2,4.2-10,6.8-16.3,6.8l0,0c-6.4,0-12.1-2.6-16.3-6.8c-4.2-4.2-6.8-10-6.8-16.3v-33.2c0-6.4,2.6-12.1,6.8-16.3
			C92.1,156.9,97.8,154.3,104.2,154.3L104.2,154.3z M104.2,164.5L104.2,164.5c-3.5,0-6.8,1.5-9.1,3.8c-2.3,2.3-3.8,5.6-3.8,9.1v33.2
			c0,3.5,1.5,6.8,3.8,9.1c2.3,2.3,5.6,3.8,9.1,3.8l0,0c3.5,0,6.8-1.5,9.1-3.8c2.3-2.3,3.8-5.6,3.8-9.1v-33.2c0-3.5-1.5-6.8-3.8-9.1
			C111,165.9,107.7,164.5,104.2,164.5L104.2,164.5z"/>
		<path class="st9" d="M68.8,193.1h63.3c4.1,0,7.5,3.4,7.5,7.5v63.2h-61c-5.4,0-9.8-4.4-9.8-9.8V193.1z"/>
		<path class="st10" d="M104.2,234.7c5.2,0,9.4-4.2,9.4-9.4c0-5.2-4.2-9.4-9.4-9.4c-5.2,0-9.4,4.2-9.4,9.4
			C94.8,230.5,99,234.7,104.2,234.7L104.2,234.7z"/>
		<path class="st10" d="M102,227.2h4.5c1,0,1.9,0.8,1.9,1.9v17.6c0,1-0.9,1.9-1.9,1.9H102c-1,0-1.9-0.8-1.9-1.9v-17.6
			C100,228,100.9,227.2,102,227.2L102,227.2z"/>
		<path class="st11" d="M104.2,210.7c6.4,0,11.8,4.1,13.8,9.7h2.7c-2.1-7.1-8.7-12.4-16.5-12.4c-7.8,0-14.4,5.2-16.5,12.4h2.7
			C92.4,214.7,97.8,210.7,104.2,210.7L104.2,210.7z"/>
	</g>
	<g id="Scan_Now">
		<path class="st12" d="M221.1,264.6h160.7c5,0,9.1,4.1,9.1,9.1v20.7c0,5-4.1,9.1-9.1,9.1H221.1c-5,0-9.1-4.1-9.1-9.1v-20.7
			C212,268.7,216.1,264.6,221.1,264.6L221.1,264.6z"/>
		<polygon class="st5" points="408.6,305.8 425.5,318.5 419.9,325.9 403.1,313.2 394.4,331 385,308.9 375.6,286.7 399.5,289.6 
			423.4,292.5 		"/>
	</g>
	<g id="Shield">
		<path class="st13" d="M340.2,370.4v52c9.9-0.8,18.9-5.2,25.6-11.9c7.4-7.4,12-17.6,12-28.9v-11.2v-42.6
			c-12.5,8.6-25.1,8.7-37.6,0.1V370.4z M336.9,429c-13,0-24.9-5.3-33.5-13.9c-8.6-8.6-13.9-20.5-13.9-33.5v-11.2v-49.3
			c0-1.8,1.5-3.3,3.3-3.3c0.9,0,1.7,0.3,2.2,0.9c13.2,11.6,26.5,11.8,39.7,0h0v0c0.1-0.1,0.2-0.2,0.3-0.2l0.1,0l0,0l0,0l0.1-0.1l0,0
			h0l0,0l0,0h0.1l0,0h0l0,0l0.1,0l0,0l0,0l0,0l0.1,0h0h0l0.1,0h0l0,0h0l0.1,0h0c0.1,0,0.2-0.1,0.3-0.1h0c0.1,0,0.1,0,0.2,0l0,0
			l0.1,0h0h0.1h0h0.1h0l0,0h0.1h0.1h0.1h0h0h0h0h0.1h0l0.1,0l0,0c0.1,0,0.1,0,0.2,0l0,0c0.1,0,0.2,0,0.3,0.1h0l0.1,0h0l0,0h0l0.1,0
			h0h0l0.1,0l0,0l0,0l0.1,0l0.1,0l0,0h0l0,0h0.1l0,0l0,0h0l0,0c0.1,0,0.1,0.1,0.1,0.1l0,0l0,0l0.1,0c0.1,0.1,0.2,0.1,0.3,0.2v0h0
			c13.2,11.9,26.5,11.7,39.7,0c0.6-0.6,1.4-0.9,2.2-0.9c1.8,0,3.3,1.5,3.3,3.3v49.3v11.2c0,13-5.3,24.9-13.9,33.5
			C361.8,423.7,349.9,429,336.9,429L336.9,429z M333.6,327.9c-12.5,8.7-25.1,8.6-37.6-0.1v42.6v11.2c0,11.2,4.6,21.4,12,28.9
			c6.7,6.7,15.7,11.1,25.6,11.9v-52V327.9z"/>
		<path class="st14" d="M336.9,370.4v55.4l0,0c-24.3,0-44.1-19.8-44.1-44.1v-11.2v-49.3c14.7,13,29.4,13.2,44.1,0V370.4z"/>
		<path class="st15" d="M336.9,370.4v55.4l0,0c24.3,0,44.1-19.8,44.1-44.1v-11.2v-49.3c-14.7,13-29.4,13.2-44.1,0V370.4z"/>
		<path class="st14" d="M349.2,358.9c-4.1,3.6-8.2,3.7-12.3,0v13.7v15.4l0,0c6.8,0,12.3-5.5,12.3-12.2v-3.1V358.9z"/>
		<path class="st15" d="M336.9,372.6v15.4l0,0c-6.7,0-12.3-5.5-12.3-12.2v-3.1v-13.7c4.1,3.6,8.2,3.7,12.3,0V372.6z"/>
	</g>
	<g id="Skull">
		<path class="st5" d="M190.8,97.9c17.8,0,32.3,14.4,32.3,32.3c0,14-8.9,25.9-21.4,30.4c0.1,0.6,0.2,1.2,0.2,1.9
			c0,6.1-5,11.1-11.1,11.1c-6.1,0-11.1-5-11.1-11.1c0-0.6,0.1-1.3,0.2-1.9c-12.4-4.5-21.4-16.4-21.4-30.4
			C158.5,112.4,173,97.9,190.8,97.9L190.8,97.9z M177.3,117.2c6,0,10.9,4.9,10.9,10.9c0,6-4.9,10.9-10.9,10.9
			c-6,0-10.9-4.9-10.9-10.9C166.4,122.1,171.3,117.2,177.3,117.2L177.3,117.2z M203.8,117.2c6,0,10.9,4.9,10.9,10.9
			c0,6-4.9,10.9-10.9,10.9c-6,0-10.9-4.9-10.9-10.9C192.9,122.1,197.8,117.2,203.8,117.2L203.8,117.2z M185.5,156.5L185.5,156.5
			c0.7,0,1.3,0.6,1.3,1.3v9.7c0,0.7-0.6,1.3-1.3,1.3l0,0c-0.7,0-1.3-0.6-1.3-1.3v-9.7C184.2,157.1,184.8,156.5,185.5,156.5
			L185.5,156.5z M190.3,156.5L190.3,156.5c0.7,0,1.3,0.6,1.3,1.3v9.7c0,0.7-0.6,1.3-1.3,1.3l0,0c-0.7,0-1.3-0.6-1.3-1.3v-9.7
			C189,157.1,189.6,156.5,190.3,156.5L190.3,156.5z M195.6,156.5L195.6,156.5c0.7,0,1.3,0.6,1.3,1.3v9.7c0,0.7-0.6,1.3-1.3,1.3l0,0
			c-0.7,0-1.3-0.6-1.3-1.3v-9.7C194.3,157.1,194.9,156.5,195.6,156.5L195.6,156.5z"/>
		<path class="st16" d="M190.8,97.9c17.8,0,32.3,14.4,32.3,32.3c0,14-8.9,25.9-21.4,30.4c0.1,0.6,0.2,1.2,0.2,1.9
			c0,6.1-5,11.1-11.1,11.1v-4.8c0.5-0.2,0.8-0.7,0.8-1.2v-9.7c0-0.6-0.3-1-0.8-1.2V97.9z M203.8,117.2c6,0,10.9,4.9,10.9,10.9
			c0,6-4.9,10.9-10.9,10.9c-6,0-10.9-4.9-10.9-10.9C192.9,122.1,197.8,117.2,203.8,117.2L203.8,117.2z M195.6,156.5L195.6,156.5
			c0.7,0,1.3,0.6,1.3,1.3v9.7c0,0.7-0.6,1.3-1.3,1.3l0,0c-0.7,0-1.3-0.6-1.3-1.3v-9.7C194.3,157.1,194.9,156.5,195.6,156.5
			L195.6,156.5z"/>
		<path class="st17" d="M164.1,169l55.2,17.9c0-0.1,0.1-0.2,0.1-0.3c0.8-2.6,3.6-3.9,6.2-3.1c2.6,0.8,3.9,3.6,3.1,6.2
			c-0.4,1.1-1.1,2-2,2.6c0.4,1,0.5,2.2,0.1,3.3c-0.8,2.6-3.6,4-6.2,3.1c-2.6-0.8-3.9-3.6-3.1-6.1c0-0.1,0.1-0.2,0.1-0.3l-55.2-17.9
			c0,0.1-0.1,0.2-0.1,0.3c-0.8,2.6-3.6,3.9-6.1,3.1c-2.6-0.8-4-3.6-3.1-6.2c0.3-1.1,1.1-2,2-2.6c-0.4-1-0.5-2.2-0.1-3.3
			c0.8-2.6,3.6-4,6.1-3.1c2.6,0.8,4,3.6,3.1,6.1C164.1,168.8,164.1,168.9,164.1,169L164.1,169z"/>
		<path class="st5" d="M215.8,169l-51.6,17.9c0-0.1-0.1-0.2-0.1-0.3c-0.8-2.6-3.4-3.9-5.7-3.1c-2.4,0.8-3.7,3.6-2.9,6.2
			c0.3,1.1,1,2,1.9,2.6c-0.4,1-0.4,2.2-0.1,3.3c0.8,2.6,3.3,4,5.7,3.1c2.4-0.8,3.7-3.6,2.9-6.1c0-0.1-0.1-0.2-0.1-0.3l51.6-17.9
			c0,0.1,0,0.2,0.1,0.3c0.8,2.6,3.4,3.9,5.7,3.1c2.4-0.8,3.7-3.6,2.9-6.2c-0.3-1.1-1-2-1.9-2.6c0.4-1,0.4-2.2,0.1-3.3
			c-0.8-2.6-3.4-4-5.7-3.1c-2.4,0.8-3.7,3.6-2.9,6.1C215.7,168.8,215.8,168.9,215.8,169L215.8,169z"/>
	</g>
</g>
</svg>
